<svg xmlns="http://www.w3.org/2000/svg" version="1.1" xmlns:xlink="http://www.w3.org/1999/xlink" xmlns:svgjs="http://svgjs.dev/svgjs" width="1000" height="623" viewBox="0 0 1000 623"><g transform="matrix(1,0,0,1,-0.6060606060606233,0.2522267206477409)"><svg viewBox="0 0 396 247" data-background-color="#ffffff" preserveAspectRatio="xMidYMid meet" height="623" width="1000" xmlns="http://www.w3.org/2000/svg" xmlns:xlink="http://www.w3.org/1999/xlink"><defs></defs><g id="tight-bounds" transform="matrix(1,0,0,1,0.2400000000000091,-0.09999999999999432)"><svg viewBox="0 0 395.52 247.2" height="247.2" width="395.52"><g><svg></svg></g><g><svg viewBox="0 0 395.52 247.2" height="247.2" width="395.52"><g transform="matrix(1,0,0,1,75.54432,96.56579327779373)"><svg viewBox="0 0 244.43135999999998 54.06841344441253" height="54.06841344441253" width="244.43135999999998"><g><svg viewBox="0 0 244.43135999999998 54.06841344441253" height="54.06841344441253" width="244.43135999999998"><g><svg viewBox="0 0 244.43135999999998 54.06841344441253" height="54.06841344441253" width="244.43135999999998"><g><svg viewBox="0 0 244.43135999999998 54.06841344441253" height="54.06841344441253" width="244.43135999999998"><g><svg viewBox="0 0 244.43135999999998 54.06841344441253" height="54.06841344441253" width="244.43135999999998"><g><svg viewBox="0 0 244.43135999999998 54.06841344441253" height="54.06841344441253" width="244.43135999999998"><g transform="matrix(1,0,0,1,0,0)"><svg width="244.43135999999998" viewBox="0.9500000476837158 -38.04999923706055 174.02999877929688 38.5" height="54.06841344441253" data-palette-color="#61777f"><path d="M23.2-34.85L28.25-34.85 16.9-13.15 16.9 0 12.35 0 12.35-13.15 0.95-34.85 6-34.85 14.6-17.2 23.2-34.85ZM52.8-27.4L57.35-27.4 57.35 0 52.8 0 52.8-4.05Q51.5-1.95 49.17-0.78 46.85 0.4 44.05 0.4L44.05 0.4Q40.85 0.4 38.3-0.93 35.75-2.25 34.27-4.9 32.8-7.55 32.8-11.35L32.8-11.35 32.8-27.4 37.3-27.4 37.3-11.95Q37.3-7.9 39.35-5.73 41.4-3.55 44.95-3.55L44.95-3.55Q48.6-3.55 50.7-5.8 52.8-8.05 52.8-12.35L52.8-12.35 52.8-27.4ZM65.05-37L69.6-37 69.6 0 65.05 0 65.05-37ZM79.69-31.85Q78.39-31.85 77.49-32.75 76.59-33.65 76.59-34.95L76.59-34.95Q76.59-36.25 77.49-37.15 78.39-38.05 79.69-38.05L79.69-38.05Q80.94-38.05 81.82-37.15 82.69-36.25 82.69-34.95L82.69-34.95Q82.69-33.65 81.82-32.75 80.94-31.85 79.69-31.85L79.69-31.85ZM77.34-27.4L81.89-27.4 81.89 0 77.34 0 77.34-27.4ZM87.94-13.8Q87.94-18 89.64-21.18 91.34-24.35 94.32-26.1 97.29-27.85 100.94-27.85L100.94-27.85Q104.54-27.85 107.19-26.3 109.84-24.75 111.14-22.4L111.14-22.4 111.14-27.4 115.74-27.4 115.74 0 111.14 0 111.14-5.1Q109.79-2.7 107.12-1.13 104.44 0.45 100.89 0.45L100.89 0.45Q97.24 0.45 94.29-1.35 91.34-3.15 89.64-6.4 87.94-9.65 87.94-13.8L87.94-13.8ZM111.14-13.75Q111.14-16.85 109.89-19.15 108.64-21.45 106.52-22.68 104.39-23.9 101.84-23.9L101.84-23.9Q99.29-23.9 97.19-22.7 95.09-21.5 93.84-19.2 92.59-16.9 92.59-13.8L92.59-13.8Q92.59-10.65 93.84-8.33 95.09-6 97.19-4.78 99.29-3.55 101.84-3.55L101.84-3.55Q104.39-3.55 106.52-4.78 108.64-6 109.89-8.33 111.14-10.65 111.14-13.75L111.14-13.75ZM136.69-34.85L141.24-34.85 141.24-12.8Q141.24-8.15 143.51-5.9 145.78-3.65 149.84-3.65L149.84-3.65Q153.84-3.65 156.11-5.9 158.38-8.15 158.38-12.8L158.38-12.8 158.38-34.85 162.94-34.85 162.94-12.85Q162.94-8.5 161.19-5.53 159.44-2.55 156.46-1.1 153.49 0.35 149.78 0.35L149.78 0.35Q146.09 0.35 143.11-1.1 140.13-2.55 138.41-5.53 136.69-8.5 136.69-12.85L136.69-12.85 136.69-34.85ZM171.98 0.3Q170.68 0.3 169.78-0.6 168.88-1.5 168.88-2.8L168.88-2.8Q168.88-4.1 169.78-5 170.68-5.9 171.98-5.9L171.98-5.9Q173.23-5.9 174.11-5 174.98-4.1 174.98-2.8L174.98-2.8Q174.98-1.5 174.11-0.6 173.23 0.3 171.98 0.3L171.98 0.3Z" opacity="1" transform="matrix(1,0,0,1,0,0)" fill="#61777f" class="undefined-text-0" data-fill-palette-color="primary" id="text-0"></path></svg></g></svg></g></svg></g></svg></g></svg></g></svg></g></svg></g><path d="M201.316 90.566L201.316 30.773 386.969 30.773 386.969 216.427 201.316 216.427 201.316 156.634 206.192 156.634 206.192 211.551 382.093 211.551 382.093 35.649 206.192 35.649 206.192 90.566Z" fill="#61777f" stroke="transparent" data-fill-palette-color="primary"></path></svg></g></svg><rect width="395.52" height="247.2" fill="none" stroke="none" visibility="hidden"></rect></g></svg></g></svg>